<mxfile host="app.diagrams.net" modified="2024-04-09T05:04:50.601Z" agent="Mozilla/5.0 (Windows NT 10.0; Win64; x64) AppleWebKit/537.36 (KHTML, like Gecko) Chrome/123.0.0.0 Safari/537.36 Edg/123.0.0.0" etag="3LY-Q-r6pENVWieZaYF3" version="24.2.2" type="device">
  <diagram name="Page-1" id="mIdqllo2_Rp58EtFCBo7">
    <mxGraphModel dx="1878" dy="853" grid="1" gridSize="10" guides="1" tooltips="1" connect="1" arrows="1" fold="1" page="1" pageScale="1" pageWidth="850" pageHeight="1100" math="0" shadow="0">
      <root>
        <mxCell id="0" />
        <mxCell id="1" parent="0" />
        <mxCell id="Ztl-WG-k0NMjig686mCI-3" value="&amp;laquo;interface&amp;raquo;&lt;br&gt;&lt;b&gt;Name&lt;/b&gt;" style="html=1;whiteSpace=wrap;" parent="1" vertex="1">
          <mxGeometry x="547" y="174" width="110" height="50" as="geometry" />
        </mxCell>
        <mxCell id="Ztl-WG-k0NMjig686mCI-4" value="Child" style="swimlane;fontStyle=1;align=center;verticalAlign=top;childLayout=stackLayout;horizontal=1;startSize=26;horizontalStack=0;resizeParent=1;resizeParentMax=0;resizeLast=0;collapsible=1;marginBottom=0;whiteSpace=wrap;html=1;" parent="1" vertex="1">
          <mxGeometry x="160" y="350" width="160" height="86" as="geometry" />
        </mxCell>
        <mxCell id="Ztl-WG-k0NMjig686mCI-5" value="+ field: type" style="text;strokeColor=none;fillColor=none;align=left;verticalAlign=top;spacingLeft=4;spacingRight=4;overflow=hidden;rotatable=0;points=[[0,0.5],[1,0.5]];portConstraint=eastwest;whiteSpace=wrap;html=1;" parent="Ztl-WG-k0NMjig686mCI-4" vertex="1">
          <mxGeometry y="26" width="160" height="26" as="geometry" />
        </mxCell>
        <mxCell id="Ztl-WG-k0NMjig686mCI-6" value="" style="line;strokeWidth=1;fillColor=none;align=left;verticalAlign=middle;spacingTop=-1;spacingLeft=3;spacingRight=3;rotatable=0;labelPosition=right;points=[];portConstraint=eastwest;strokeColor=inherit;" parent="Ztl-WG-k0NMjig686mCI-4" vertex="1">
          <mxGeometry y="52" width="160" height="8" as="geometry" />
        </mxCell>
        <mxCell id="Ztl-WG-k0NMjig686mCI-7" value="+ method(type): type" style="text;strokeColor=none;fillColor=none;align=left;verticalAlign=top;spacingLeft=4;spacingRight=4;overflow=hidden;rotatable=0;points=[[0,0.5],[1,0.5]];portConstraint=eastwest;whiteSpace=wrap;html=1;" parent="Ztl-WG-k0NMjig686mCI-4" vertex="1">
          <mxGeometry y="60" width="160" height="26" as="geometry" />
        </mxCell>
        <mxCell id="Ztl-WG-k0NMjig686mCI-8" value="Parent" style="swimlane;fontStyle=1;align=center;verticalAlign=top;childLayout=stackLayout;horizontal=1;startSize=26;horizontalStack=0;resizeParent=1;resizeParentMax=0;resizeLast=0;collapsible=1;marginBottom=0;whiteSpace=wrap;html=1;" parent="1" vertex="1">
          <mxGeometry x="160" y="160" width="160" height="86" as="geometry" />
        </mxCell>
        <mxCell id="Ztl-WG-k0NMjig686mCI-9" value="+ field: type" style="text;strokeColor=none;fillColor=none;align=left;verticalAlign=top;spacingLeft=4;spacingRight=4;overflow=hidden;rotatable=0;points=[[0,0.5],[1,0.5]];portConstraint=eastwest;whiteSpace=wrap;html=1;" parent="Ztl-WG-k0NMjig686mCI-8" vertex="1">
          <mxGeometry y="26" width="160" height="26" as="geometry" />
        </mxCell>
        <mxCell id="Ztl-WG-k0NMjig686mCI-10" value="" style="line;strokeWidth=1;fillColor=none;align=left;verticalAlign=middle;spacingTop=-1;spacingLeft=3;spacingRight=3;rotatable=0;labelPosition=right;points=[];portConstraint=eastwest;strokeColor=inherit;" parent="Ztl-WG-k0NMjig686mCI-8" vertex="1">
          <mxGeometry y="52" width="160" height="8" as="geometry" />
        </mxCell>
        <mxCell id="Ztl-WG-k0NMjig686mCI-11" value="+ method(type): type" style="text;strokeColor=none;fillColor=none;align=left;verticalAlign=top;spacingLeft=4;spacingRight=4;overflow=hidden;rotatable=0;points=[[0,0.5],[1,0.5]];portConstraint=eastwest;whiteSpace=wrap;html=1;" parent="Ztl-WG-k0NMjig686mCI-8" vertex="1">
          <mxGeometry y="60" width="160" height="26" as="geometry" />
        </mxCell>
        <mxCell id="Ztl-WG-k0NMjig686mCI-12" value="&lt;b&gt;Inheritance&lt;br&gt;When a class inherits from a super (parent) class&lt;/b&gt;" style="text;html=1;align=left;verticalAlign=middle;resizable=0;points=[];autosize=1;strokeColor=none;fillColor=none;labelBackgroundColor=default;labelBorderColor=none;" parent="1" vertex="1">
          <mxGeometry x="160" y="101" width="300" height="40" as="geometry" />
        </mxCell>
        <mxCell id="Ztl-WG-k0NMjig686mCI-13" value="Extends" style="endArrow=block;endSize=16;endFill=0;html=1;rounded=0;exitX=0.5;exitY=0;exitDx=0;exitDy=0;" parent="1" source="Ztl-WG-k0NMjig686mCI-4" target="Ztl-WG-k0NMjig686mCI-11" edge="1">
          <mxGeometry width="160" relative="1" as="geometry">
            <mxPoint x="90" y="440" as="sourcePoint" />
            <mxPoint x="250" y="440" as="targetPoint" />
          </mxGeometry>
        </mxCell>
        <mxCell id="Ztl-WG-k0NMjig686mCI-15" value="Classname" style="swimlane;fontStyle=1;align=center;verticalAlign=top;childLayout=stackLayout;horizontal=1;startSize=26;horizontalStack=0;resizeParent=1;resizeParentMax=0;resizeLast=0;collapsible=1;marginBottom=0;whiteSpace=wrap;html=1;" parent="1" vertex="1">
          <mxGeometry x="522" y="350" width="160" height="86" as="geometry" />
        </mxCell>
        <mxCell id="Ztl-WG-k0NMjig686mCI-16" value="+ field: type" style="text;strokeColor=none;fillColor=none;align=left;verticalAlign=top;spacingLeft=4;spacingRight=4;overflow=hidden;rotatable=0;points=[[0,0.5],[1,0.5]];portConstraint=eastwest;whiteSpace=wrap;html=1;" parent="Ztl-WG-k0NMjig686mCI-15" vertex="1">
          <mxGeometry y="26" width="160" height="26" as="geometry" />
        </mxCell>
        <mxCell id="Ztl-WG-k0NMjig686mCI-17" value="" style="line;strokeWidth=1;fillColor=none;align=left;verticalAlign=middle;spacingTop=-1;spacingLeft=3;spacingRight=3;rotatable=0;labelPosition=right;points=[];portConstraint=eastwest;strokeColor=inherit;" parent="Ztl-WG-k0NMjig686mCI-15" vertex="1">
          <mxGeometry y="52" width="160" height="8" as="geometry" />
        </mxCell>
        <mxCell id="Ztl-WG-k0NMjig686mCI-18" value="+ method(type): type" style="text;strokeColor=none;fillColor=none;align=left;verticalAlign=top;spacingLeft=4;spacingRight=4;overflow=hidden;rotatable=0;points=[[0,0.5],[1,0.5]];portConstraint=eastwest;whiteSpace=wrap;html=1;" parent="Ztl-WG-k0NMjig686mCI-15" vertex="1">
          <mxGeometry y="60" width="160" height="26" as="geometry" />
        </mxCell>
        <mxCell id="Ztl-WG-k0NMjig686mCI-23" value="" style="endArrow=block;dashed=1;endFill=0;endSize=12;html=1;rounded=0;entryX=0.5;entryY=1;entryDx=0;entryDy=0;exitX=0.5;exitY=0;exitDx=0;exitDy=0;" parent="1" source="Ztl-WG-k0NMjig686mCI-15" target="Ztl-WG-k0NMjig686mCI-3" edge="1">
          <mxGeometry width="160" relative="1" as="geometry">
            <mxPoint x="462" y="460" as="sourcePoint" />
            <mxPoint x="322" y="440" as="targetPoint" />
          </mxGeometry>
        </mxCell>
        <mxCell id="Ztl-WG-k0NMjig686mCI-24" value="&lt;b&gt;Implements&lt;br&gt;When a class implements an Interface&lt;/b&gt;" style="text;html=1;align=left;verticalAlign=middle;resizable=0;points=[];autosize=1;strokeColor=none;fillColor=none;" parent="1" vertex="1">
          <mxGeometry x="547" y="110" width="240" height="40" as="geometry" />
        </mxCell>
        <mxCell id="Ztl-WG-k0NMjig686mCI-25" value="Flight" style="swimlane;fontStyle=1;align=center;verticalAlign=top;childLayout=stackLayout;horizontal=1;startSize=26;horizontalStack=0;resizeParent=1;resizeParentMax=0;resizeLast=0;collapsible=1;marginBottom=0;whiteSpace=wrap;html=1;" parent="1" vertex="1">
          <mxGeometry x="158" y="626" width="160" height="34" as="geometry" />
        </mxCell>
        <mxCell id="Ztl-WG-k0NMjig686mCI-27" value="" style="line;strokeWidth=1;fillColor=none;align=left;verticalAlign=middle;spacingTop=-1;spacingLeft=3;spacingRight=3;rotatable=0;labelPosition=right;points=[];portConstraint=eastwest;strokeColor=inherit;" parent="Ztl-WG-k0NMjig686mCI-25" vertex="1">
          <mxGeometry y="26" width="160" height="8" as="geometry" />
        </mxCell>
        <mxCell id="Ztl-WG-k0NMjig686mCI-29" value="Plane" style="swimlane;fontStyle=1;align=center;verticalAlign=top;childLayout=stackLayout;horizontal=1;startSize=26;horizontalStack=0;resizeParent=1;resizeParentMax=0;resizeLast=0;collapsible=1;marginBottom=0;whiteSpace=wrap;html=1;" parent="1" vertex="1">
          <mxGeometry x="578" y="620" width="160" height="34" as="geometry" />
        </mxCell>
        <mxCell id="Ztl-WG-k0NMjig686mCI-31" value="" style="line;strokeWidth=1;fillColor=none;align=left;verticalAlign=middle;spacingTop=-1;spacingLeft=3;spacingRight=3;rotatable=0;labelPosition=right;points=[];portConstraint=eastwest;strokeColor=inherit;" parent="Ztl-WG-k0NMjig686mCI-29" vertex="1">
          <mxGeometry y="26" width="160" height="8" as="geometry" />
        </mxCell>
        <mxCell id="Ztl-WG-k0NMjig686mCI-33" value="" style="endArrow=none;html=1;edgeStyle=orthogonalEdgeStyle;rounded=0;exitX=1;exitY=0.5;exitDx=0;exitDy=0;entryX=0;entryY=0.5;entryDx=0;entryDy=0;" parent="1" edge="1">
          <mxGeometry relative="1" as="geometry">
            <mxPoint x="320" y="639" as="sourcePoint" />
            <mxPoint x="576" y="639" as="targetPoint" />
          </mxGeometry>
        </mxCell>
        <mxCell id="Ztl-WG-k0NMjig686mCI-34" value="0..*" style="edgeLabel;resizable=0;html=1;align=left;verticalAlign=bottom;" parent="Ztl-WG-k0NMjig686mCI-33" connectable="0" vertex="1">
          <mxGeometry x="-1" relative="1" as="geometry">
            <mxPoint x="3" as="offset" />
          </mxGeometry>
        </mxCell>
        <mxCell id="Ztl-WG-k0NMjig686mCI-35" value="0..1" style="edgeLabel;resizable=0;html=1;align=right;verticalAlign=bottom;" parent="Ztl-WG-k0NMjig686mCI-33" connectable="0" vertex="1">
          <mxGeometry x="1" relative="1" as="geometry">
            <mxPoint x="-5" as="offset" />
          </mxGeometry>
        </mxCell>
        <mxCell id="Ztl-WG-k0NMjig686mCI-36" value="AssignedFlights" style="text;html=1;align=center;verticalAlign=middle;resizable=0;points=[];autosize=1;strokeColor=none;fillColor=none;" parent="1" vertex="1">
          <mxGeometry x="311" y="638" width="110" height="30" as="geometry" />
        </mxCell>
        <mxCell id="Ztl-WG-k0NMjig686mCI-37" value="AssignedPlane" style="text;html=1;align=center;verticalAlign=middle;resizable=0;points=[];autosize=1;strokeColor=none;fillColor=none;" parent="1" vertex="1">
          <mxGeometry x="480" y="638" width="100" height="30" as="geometry" />
        </mxCell>
        <mxCell id="Ztl-WG-k0NMjig686mCI-38" value="LAB1:&lt;br&gt;Associations&lt;br&gt;&lt;br&gt;&lt;div&gt;A linkage between two classes. &lt;br&gt;Bi-directional association is used when both sides are aware of each other and play a role for the other party.&lt;/div&gt;&lt;div&gt;No arrows exist between the two classes.&lt;/div&gt;" style="text;html=1;align=left;verticalAlign=middle;resizable=0;points=[];autosize=1;strokeColor=none;fillColor=none;fontStyle=1" parent="1" vertex="1">
          <mxGeometry x="158" y="515" width="600" height="100" as="geometry" />
        </mxCell>
        <mxCell id="Ztl-WG-k0NMjig686mCI-39" value="Implement the flight class in Java&amp;nbsp;&lt;div&gt;Write the public fields and the constructor&lt;br&gt;Write the method signatures for all public methods&lt;br&gt;E.g.&amp;nbsp;&lt;br&gt;&lt;span style=&quot;text-wrap: wrap; background-color: initial;&quot;&gt;&lt;br&gt;&lt;/span&gt;&lt;/div&gt;&lt;div&gt;&lt;span style=&quot;text-wrap: wrap; background-color: initial;&quot;&gt;Diagram&lt;/span&gt;&lt;/div&gt;&lt;div&gt;&lt;span style=&quot;text-wrap: wrap; background-color: initial;&quot;&gt;+ method(type a, type b, ...): returnType&lt;br&gt;&lt;br&gt;&lt;/span&gt;&lt;/div&gt;&lt;div&gt;&lt;span style=&quot;text-wrap: wrap; background-color: initial;&quot;&gt;Java code:&lt;br&gt;&lt;/span&gt;&lt;span style=&quot;text-wrap: wrap;&quot;&gt;public returnType method(type a, type b, ...) {&lt;/span&gt;&lt;/div&gt;&lt;div&gt;&lt;span style=&quot;text-wrap: wrap;&quot;&gt;}&lt;/span&gt;&lt;span style=&quot;text-wrap: wrap; background-color: initial;&quot;&gt;&lt;br&gt;&lt;/span&gt;&lt;/div&gt;" style="text;html=1;align=left;verticalAlign=middle;resizable=0;points=[];autosize=1;strokeColor=none;fillColor=none;fontStyle=1" parent="1" vertex="1">
          <mxGeometry x="135" y="810" width="290" height="170" as="geometry" />
        </mxCell>
        <mxCell id="Ztl-WG-k0NMjig686mCI-40" value="Flight" style="swimlane;fontStyle=1;align=center;verticalAlign=top;childLayout=stackLayout;horizontal=1;startSize=26;horizontalStack=0;resizeParent=1;resizeParentMax=0;resizeLast=0;collapsible=1;marginBottom=0;whiteSpace=wrap;html=1;" parent="1" vertex="1">
          <mxGeometry x="130" y="1000" width="277" height="242" as="geometry" />
        </mxCell>
        <mxCell id="Ztl-WG-k0NMjig686mCI-41" value="+ flightNumber: Integer&lt;div&gt;&lt;br&gt;&lt;/div&gt;" style="text;strokeColor=none;fillColor=none;align=left;verticalAlign=top;spacingLeft=4;spacingRight=4;overflow=hidden;rotatable=0;points=[[0,0.5],[1,0.5]];portConstraint=eastwest;whiteSpace=wrap;html=1;" parent="Ztl-WG-k0NMjig686mCI-40" vertex="1">
          <mxGeometry y="26" width="277" height="26" as="geometry" />
        </mxCell>
        <mxCell id="Ztl-WG-k0NMjig686mCI-49" value="+ departureDate: Date" style="text;strokeColor=none;fillColor=none;align=left;verticalAlign=top;spacingLeft=4;spacingRight=4;overflow=hidden;rotatable=0;points=[[0,0.5],[1,0.5]];portConstraint=eastwest;whiteSpace=wrap;html=1;" parent="Ztl-WG-k0NMjig686mCI-40" vertex="1">
          <mxGeometry y="52" width="277" height="26" as="geometry" />
        </mxCell>
        <mxCell id="Ztl-WG-k0NMjig686mCI-51" value="+ departureAirport: String" style="text;strokeColor=none;fillColor=none;align=left;verticalAlign=top;spacingLeft=4;spacingRight=4;overflow=hidden;rotatable=0;points=[[0,0.5],[1,0.5]];portConstraint=eastwest;whiteSpace=wrap;html=1;" parent="Ztl-WG-k0NMjig686mCI-40" vertex="1">
          <mxGeometry y="78" width="277" height="26" as="geometry" />
        </mxCell>
        <mxCell id="Ztl-WG-k0NMjig686mCI-50" value="+ arrivalAirport: String" style="text;strokeColor=none;fillColor=none;align=left;verticalAlign=top;spacingLeft=4;spacingRight=4;overflow=hidden;rotatable=0;points=[[0,0.5],[1,0.5]];portConstraint=eastwest;whiteSpace=wrap;html=1;" parent="Ztl-WG-k0NMjig686mCI-40" vertex="1">
          <mxGeometry y="104" width="277" height="26" as="geometry" />
        </mxCell>
        <mxCell id="Ztl-WG-k0NMjig686mCI-48" value="+ isOnTime: Boolean" style="text;strokeColor=none;fillColor=none;align=left;verticalAlign=top;spacingLeft=4;spacingRight=4;overflow=hidden;rotatable=0;points=[[0,0.5],[1,0.5]];portConstraint=eastwest;whiteSpace=wrap;html=1;" parent="Ztl-WG-k0NMjig686mCI-40" vertex="1">
          <mxGeometry y="130" width="277" height="26" as="geometry" />
        </mxCell>
        <mxCell id="Ztl-WG-k0NMjig686mCI-42" value="" style="line;strokeWidth=1;fillColor=none;align=left;verticalAlign=middle;spacingTop=-1;spacingLeft=3;spacingRight=3;rotatable=0;labelPosition=right;points=[];portConstraint=eastwest;strokeColor=inherit;" parent="Ztl-WG-k0NMjig686mCI-40" vertex="1">
          <mxGeometry y="156" width="277" height="8" as="geometry" />
        </mxCell>
        <mxCell id="Ztl-WG-k0NMjig686mCI-53" value="+ Flight(type ..)" style="text;strokeColor=none;fillColor=none;align=left;verticalAlign=top;spacingLeft=4;spacingRight=4;overflow=hidden;rotatable=0;points=[[0,0.5],[1,0.5]];portConstraint=eastwest;whiteSpace=wrap;html=1;" parent="Ztl-WG-k0NMjig686mCI-40" vertex="1">
          <mxGeometry y="164" width="277" height="26" as="geometry" />
        </mxCell>
        <mxCell id="Ztl-WG-k0NMjig686mCI-54" value="+ setPlane(Plane)" style="text;strokeColor=none;fillColor=none;align=left;verticalAlign=top;spacingLeft=4;spacingRight=4;overflow=hidden;rotatable=0;points=[[0,0.5],[1,0.5]];portConstraint=eastwest;whiteSpace=wrap;html=1;" parent="Ztl-WG-k0NMjig686mCI-40" vertex="1">
          <mxGeometry y="190" width="277" height="26" as="geometry" />
        </mxCell>
        <mxCell id="Ztl-WG-k0NMjig686mCI-43" value="+ setIsOnTime(Boolean): void" style="text;strokeColor=none;fillColor=none;align=left;verticalAlign=top;spacingLeft=4;spacingRight=4;overflow=hidden;rotatable=0;points=[[0,0.5],[1,0.5]];portConstraint=eastwest;whiteSpace=wrap;html=1;" parent="Ztl-WG-k0NMjig686mCI-40" vertex="1">
          <mxGeometry y="216" width="277" height="26" as="geometry" />
        </mxCell>
        <mxCell id="Ztl-WG-k0NMjig686mCI-44" value="Plane" style="swimlane;fontStyle=0;childLayout=stackLayout;horizontal=1;startSize=26;fillColor=none;horizontalStack=0;resizeParent=1;resizeParentMax=0;resizeLast=0;collapsible=1;marginBottom=0;whiteSpace=wrap;html=1;" parent="1" vertex="1">
          <mxGeometry x="437" y="1000" width="368" height="104" as="geometry" />
        </mxCell>
        <mxCell id="Ztl-WG-k0NMjig686mCI-57" value="+ Plane(String airPlaneType, String airPlaneId)" style="text;strokeColor=none;fillColor=none;align=left;verticalAlign=top;spacingLeft=4;spacingRight=4;overflow=hidden;rotatable=0;points=[[0,0.5],[1,0.5]];portConstraint=eastwest;whiteSpace=wrap;html=1;" parent="Ztl-WG-k0NMjig686mCI-44" vertex="1">
          <mxGeometry y="26" width="368" height="26" as="geometry" />
        </mxCell>
        <mxCell id="Ztl-WG-k0NMjig686mCI-45" value="+ getPlaneId(): String" style="text;strokeColor=none;fillColor=none;align=left;verticalAlign=top;spacingLeft=4;spacingRight=4;overflow=hidden;rotatable=0;points=[[0,0.5],[1,0.5]];portConstraint=eastwest;whiteSpace=wrap;html=1;" parent="Ztl-WG-k0NMjig686mCI-44" vertex="1">
          <mxGeometry y="52" width="368" height="26" as="geometry" />
        </mxCell>
        <mxCell id="Ztl-WG-k0NMjig686mCI-46" value="+ getPlaneType(): String" style="text;strokeColor=none;fillColor=none;align=left;verticalAlign=top;spacingLeft=4;spacingRight=4;overflow=hidden;rotatable=0;points=[[0,0.5],[1,0.5]];portConstraint=eastwest;whiteSpace=wrap;html=1;" parent="Ztl-WG-k0NMjig686mCI-44" vertex="1">
          <mxGeometry y="78" width="368" height="26" as="geometry" />
        </mxCell>
        <mxCell id="Ztl-WG-k0NMjig686mCI-58" value="Object Creation Principle: Make sure object creation is valid and consistent with requirements" style="text;html=1;align=center;verticalAlign=middle;resizable=0;points=[];autosize=1;strokeColor=none;fillColor=none;fontStyle=1" parent="1" vertex="1">
          <mxGeometry x="144" y="54" width="520" height="30" as="geometry" />
        </mxCell>
        <mxCell id="Ztl-WG-k0NMjig686mCI-59" value="LAB2:&amp;nbsp;&lt;br&gt;Inheritance Example:&lt;div&gt;Consider types of bank accounts: Checking Account and Savings Account&lt;br&gt;&lt;/div&gt;&lt;div&gt;&lt;br&gt;&lt;br&gt;Saving Account has interest percentage. Needs to process interest.&lt;/div&gt;&lt;div&gt;Checking Account has check processing. Needs to handle insufficient funds.&lt;/div&gt;&lt;div&gt;&lt;br&gt;&lt;/div&gt;&lt;div&gt;Complete the diagram and write the Java code.&lt;br&gt;Implement constructors, public fields and public method signatures.&lt;br&gt;&lt;br&gt;&lt;/div&gt;" style="text;html=1;align=left;verticalAlign=middle;resizable=0;points=[];autosize=1;strokeColor=none;fillColor=none;fontStyle=1" parent="1" vertex="1">
          <mxGeometry x="150" y="1320" width="430" height="170" as="geometry" />
        </mxCell>
        <mxCell id="Ztl-WG-k0NMjig686mCI-60" value="BankAccount" style="swimlane;fontStyle=1;align=center;verticalAlign=top;childLayout=stackLayout;horizontal=1;startSize=26;horizontalStack=0;resizeParent=1;resizeParentMax=0;resizeLast=0;collapsible=1;marginBottom=0;whiteSpace=wrap;html=1;" parent="1" vertex="1">
          <mxGeometry x="240" y="1490" width="160" height="164" as="geometry" />
        </mxCell>
        <mxCell id="Ztl-WG-k0NMjig686mCI-75" value="+ ownerId: String" style="text;strokeColor=none;fillColor=none;align=left;verticalAlign=top;spacingLeft=4;spacingRight=4;overflow=hidden;rotatable=0;points=[[0,0.5],[1,0.5]];portConstraint=eastwest;whiteSpace=wrap;html=1;" parent="Ztl-WG-k0NMjig686mCI-60" vertex="1">
          <mxGeometry y="26" width="160" height="26" as="geometry" />
        </mxCell>
        <mxCell id="Ztl-WG-k0NMjig686mCI-76" value="+ accountNumber: Integer" style="text;strokeColor=none;fillColor=none;align=left;verticalAlign=top;spacingLeft=4;spacingRight=4;overflow=hidden;rotatable=0;points=[[0,0.5],[1,0.5]];portConstraint=eastwest;whiteSpace=wrap;html=1;" parent="Ztl-WG-k0NMjig686mCI-60" vertex="1">
          <mxGeometry y="52" width="160" height="26" as="geometry" />
        </mxCell>
        <mxCell id="Ztl-WG-k0NMjig686mCI-61" value="+ balance: Amount" style="text;strokeColor=none;fillColor=none;align=left;verticalAlign=top;spacingLeft=4;spacingRight=4;overflow=hidden;rotatable=0;points=[[0,0.5],[1,0.5]];portConstraint=eastwest;whiteSpace=wrap;html=1;" parent="Ztl-WG-k0NMjig686mCI-60" vertex="1">
          <mxGeometry y="78" width="160" height="26" as="geometry" />
        </mxCell>
        <mxCell id="Ztl-WG-k0NMjig686mCI-62" value="" style="line;strokeWidth=1;fillColor=none;align=left;verticalAlign=middle;spacingTop=-1;spacingLeft=3;spacingRight=3;rotatable=0;labelPosition=right;points=[];portConstraint=eastwest;strokeColor=inherit;" parent="Ztl-WG-k0NMjig686mCI-60" vertex="1">
          <mxGeometry y="104" width="160" height="8" as="geometry" />
        </mxCell>
        <mxCell id="Ztl-WG-k0NMjig686mCI-74" value="+ deposit(Amount)" style="text;strokeColor=none;fillColor=none;align=left;verticalAlign=top;spacingLeft=4;spacingRight=4;overflow=hidden;rotatable=0;points=[[0,0.5],[1,0.5]];portConstraint=eastwest;whiteSpace=wrap;html=1;" parent="Ztl-WG-k0NMjig686mCI-60" vertex="1">
          <mxGeometry y="112" width="160" height="26" as="geometry" />
        </mxCell>
        <mxCell id="Ztl-WG-k0NMjig686mCI-63" value="+ withdrawal(Amount)" style="text;strokeColor=none;fillColor=none;align=left;verticalAlign=top;spacingLeft=4;spacingRight=4;overflow=hidden;rotatable=0;points=[[0,0.5],[1,0.5]];portConstraint=eastwest;whiteSpace=wrap;html=1;" parent="Ztl-WG-k0NMjig686mCI-60" vertex="1">
          <mxGeometry y="138" width="160" height="26" as="geometry" />
        </mxCell>
        <mxCell id="Ztl-WG-k0NMjig686mCI-64" value="CheckingAccount" style="swimlane;fontStyle=1;align=center;verticalAlign=top;childLayout=stackLayout;horizontal=1;startSize=26;horizontalStack=0;resizeParent=1;resizeParentMax=0;resizeLast=0;collapsible=1;marginBottom=0;whiteSpace=wrap;html=1;" parent="1" vertex="1">
          <mxGeometry x="80" y="1750" width="160" height="86" as="geometry" />
        </mxCell>
        <mxCell id="Ztl-WG-k0NMjig686mCI-65" value="+ field: type" style="text;strokeColor=none;fillColor=none;align=left;verticalAlign=top;spacingLeft=4;spacingRight=4;overflow=hidden;rotatable=0;points=[[0,0.5],[1,0.5]];portConstraint=eastwest;whiteSpace=wrap;html=1;" parent="Ztl-WG-k0NMjig686mCI-64" vertex="1">
          <mxGeometry y="26" width="160" height="26" as="geometry" />
        </mxCell>
        <mxCell id="Ztl-WG-k0NMjig686mCI-66" value="" style="line;strokeWidth=1;fillColor=none;align=left;verticalAlign=middle;spacingTop=-1;spacingLeft=3;spacingRight=3;rotatable=0;labelPosition=right;points=[];portConstraint=eastwest;strokeColor=inherit;" parent="Ztl-WG-k0NMjig686mCI-64" vertex="1">
          <mxGeometry y="52" width="160" height="8" as="geometry" />
        </mxCell>
        <mxCell id="Ztl-WG-k0NMjig686mCI-67" value="+ method(type): type" style="text;strokeColor=none;fillColor=none;align=left;verticalAlign=top;spacingLeft=4;spacingRight=4;overflow=hidden;rotatable=0;points=[[0,0.5],[1,0.5]];portConstraint=eastwest;whiteSpace=wrap;html=1;" parent="Ztl-WG-k0NMjig686mCI-64" vertex="1">
          <mxGeometry y="60" width="160" height="26" as="geometry" />
        </mxCell>
        <mxCell id="Ztl-WG-k0NMjig686mCI-68" value="SavingsAccount" style="swimlane;fontStyle=1;align=center;verticalAlign=top;childLayout=stackLayout;horizontal=1;startSize=26;horizontalStack=0;resizeParent=1;resizeParentMax=0;resizeLast=0;collapsible=1;marginBottom=0;whiteSpace=wrap;html=1;" parent="1" vertex="1">
          <mxGeometry x="371.5" y="1749" width="160" height="86" as="geometry" />
        </mxCell>
        <mxCell id="Ztl-WG-k0NMjig686mCI-69" value="+ field: type" style="text;strokeColor=none;fillColor=none;align=left;verticalAlign=top;spacingLeft=4;spacingRight=4;overflow=hidden;rotatable=0;points=[[0,0.5],[1,0.5]];portConstraint=eastwest;whiteSpace=wrap;html=1;" parent="Ztl-WG-k0NMjig686mCI-68" vertex="1">
          <mxGeometry y="26" width="160" height="26" as="geometry" />
        </mxCell>
        <mxCell id="Ztl-WG-k0NMjig686mCI-70" value="" style="line;strokeWidth=1;fillColor=none;align=left;verticalAlign=middle;spacingTop=-1;spacingLeft=3;spacingRight=3;rotatable=0;labelPosition=right;points=[];portConstraint=eastwest;strokeColor=inherit;" parent="Ztl-WG-k0NMjig686mCI-68" vertex="1">
          <mxGeometry y="52" width="160" height="8" as="geometry" />
        </mxCell>
        <mxCell id="Ztl-WG-k0NMjig686mCI-71" value="+ method(type): type" style="text;strokeColor=none;fillColor=none;align=left;verticalAlign=top;spacingLeft=4;spacingRight=4;overflow=hidden;rotatable=0;points=[[0,0.5],[1,0.5]];portConstraint=eastwest;whiteSpace=wrap;html=1;" parent="Ztl-WG-k0NMjig686mCI-68" vertex="1">
          <mxGeometry y="60" width="160" height="26" as="geometry" />
        </mxCell>
        <mxCell id="Ztl-WG-k0NMjig686mCI-72" value="Extends" style="endArrow=block;endSize=16;endFill=0;html=1;rounded=0;exitX=0.5;exitY=0;exitDx=0;exitDy=0;" parent="1" source="Ztl-WG-k0NMjig686mCI-68" target="Ztl-WG-k0NMjig686mCI-63" edge="1">
          <mxGeometry width="160" relative="1" as="geometry">
            <mxPoint x="600" y="1570" as="sourcePoint" />
            <mxPoint x="760" y="1570" as="targetPoint" />
          </mxGeometry>
        </mxCell>
        <mxCell id="Ztl-WG-k0NMjig686mCI-73" value="Extends" style="endArrow=block;endSize=16;endFill=0;html=1;rounded=0;exitX=0.5;exitY=0;exitDx=0;exitDy=0;entryX=0.258;entryY=1.015;entryDx=0;entryDy=0;entryPerimeter=0;" parent="1" source="Ztl-WG-k0NMjig686mCI-64" target="Ztl-WG-k0NMjig686mCI-63" edge="1">
          <mxGeometry width="160" relative="1" as="geometry">
            <mxPoint x="422" y="1680" as="sourcePoint" />
            <mxPoint x="309" y="1596" as="targetPoint" />
          </mxGeometry>
        </mxCell>
        <mxCell id="Ztl-WG-k0NMjig686mCI-77" value="OverdrawnAccountsReport" style="swimlane;fontStyle=1;align=center;verticalAlign=top;childLayout=stackLayout;horizontal=1;startSize=26;horizontalStack=0;resizeParent=1;resizeParentMax=0;resizeLast=0;collapsible=1;marginBottom=0;whiteSpace=wrap;html=1;" parent="1" vertex="1">
          <mxGeometry x="40" y="1988" width="230" height="86" as="geometry" />
        </mxCell>
        <mxCell id="Ztl-WG-k0NMjig686mCI-78" value="+ field: type" style="text;strokeColor=none;fillColor=none;align=left;verticalAlign=top;spacingLeft=4;spacingRight=4;overflow=hidden;rotatable=0;points=[[0,0.5],[1,0.5]];portConstraint=eastwest;whiteSpace=wrap;html=1;" parent="Ztl-WG-k0NMjig686mCI-77" vertex="1">
          <mxGeometry y="26" width="230" height="26" as="geometry" />
        </mxCell>
        <mxCell id="Ztl-WG-k0NMjig686mCI-79" value="" style="line;strokeWidth=1;fillColor=none;align=left;verticalAlign=middle;spacingTop=-1;spacingLeft=3;spacingRight=3;rotatable=0;labelPosition=right;points=[];portConstraint=eastwest;strokeColor=inherit;" parent="Ztl-WG-k0NMjig686mCI-77" vertex="1">
          <mxGeometry y="52" width="230" height="8" as="geometry" />
        </mxCell>
        <mxCell id="Ztl-WG-k0NMjig686mCI-80" value="+ method(type): type" style="text;strokeColor=none;fillColor=none;align=left;verticalAlign=top;spacingLeft=4;spacingRight=4;overflow=hidden;rotatable=0;points=[[0,0.5],[1,0.5]];portConstraint=eastwest;whiteSpace=wrap;html=1;" parent="Ztl-WG-k0NMjig686mCI-77" vertex="1">
          <mxGeometry y="60" width="230" height="26" as="geometry" />
        </mxCell>
        <mxCell id="Ztl-WG-k0NMjig686mCI-81" value="&lt;b&gt;We need an Overdrawn report which reports all checking accounts&lt;br&gt;that are overdrawn and need to reported to apply Insufficient Fund fees.&amp;nbsp;&lt;/b&gt;" style="text;html=1;align=left;verticalAlign=middle;resizable=0;points=[];autosize=1;strokeColor=none;fillColor=none;" parent="1" vertex="1">
          <mxGeometry x="40" y="1920" width="440" height="40" as="geometry" />
        </mxCell>
        <mxCell id="Ztl-WG-k0NMjig686mCI-86" value="CheckingAccount" style="swimlane;fontStyle=1;align=center;verticalAlign=top;childLayout=stackLayout;horizontal=1;startSize=26;horizontalStack=0;resizeParent=1;resizeParentMax=0;resizeLast=0;collapsible=1;marginBottom=0;whiteSpace=wrap;html=1;" parent="1" vertex="1">
          <mxGeometry x="455" y="1989" width="160" height="86" as="geometry" />
        </mxCell>
        <mxCell id="Ztl-WG-k0NMjig686mCI-87" value="+ field: type" style="text;strokeColor=none;fillColor=none;align=left;verticalAlign=top;spacingLeft=4;spacingRight=4;overflow=hidden;rotatable=0;points=[[0,0.5],[1,0.5]];portConstraint=eastwest;whiteSpace=wrap;html=1;" parent="Ztl-WG-k0NMjig686mCI-86" vertex="1">
          <mxGeometry y="26" width="160" height="26" as="geometry" />
        </mxCell>
        <mxCell id="Ztl-WG-k0NMjig686mCI-88" value="" style="line;strokeWidth=1;fillColor=none;align=left;verticalAlign=middle;spacingTop=-1;spacingLeft=3;spacingRight=3;rotatable=0;labelPosition=right;points=[];portConstraint=eastwest;strokeColor=inherit;" parent="Ztl-WG-k0NMjig686mCI-86" vertex="1">
          <mxGeometry y="52" width="160" height="8" as="geometry" />
        </mxCell>
        <mxCell id="Ztl-WG-k0NMjig686mCI-89" value="+ method(type): type" style="text;strokeColor=none;fillColor=none;align=left;verticalAlign=top;spacingLeft=4;spacingRight=4;overflow=hidden;rotatable=0;points=[[0,0.5],[1,0.5]];portConstraint=eastwest;whiteSpace=wrap;html=1;" parent="Ztl-WG-k0NMjig686mCI-86" vertex="1">
          <mxGeometry y="60" width="160" height="26" as="geometry" />
        </mxCell>
        <mxCell id="Ztl-WG-k0NMjig686mCI-90" value="" style="endArrow=open;endFill=1;endSize=12;html=1;rounded=0;entryX=0;entryY=0.5;entryDx=0;entryDy=0;" parent="1" target="Ztl-WG-k0NMjig686mCI-93" edge="1">
          <mxGeometry width="160" relative="1" as="geometry">
            <mxPoint x="318" y="750" as="sourcePoint" />
            <mxPoint x="558" y="750" as="targetPoint" />
          </mxGeometry>
        </mxCell>
        <mxCell id="Ztl-WG-k0NMjig686mCI-91" value="Flight" style="swimlane;fontStyle=1;align=center;verticalAlign=top;childLayout=stackLayout;horizontal=1;startSize=26;horizontalStack=0;resizeParent=1;resizeParentMax=0;resizeLast=0;collapsible=1;marginBottom=0;whiteSpace=wrap;html=1;" parent="1" vertex="1">
          <mxGeometry x="158" y="736" width="160" height="34" as="geometry" />
        </mxCell>
        <mxCell id="Ztl-WG-k0NMjig686mCI-92" value="" style="line;strokeWidth=1;fillColor=none;align=left;verticalAlign=middle;spacingTop=-1;spacingLeft=3;spacingRight=3;rotatable=0;labelPosition=right;points=[];portConstraint=eastwest;strokeColor=inherit;" parent="Ztl-WG-k0NMjig686mCI-91" vertex="1">
          <mxGeometry y="26" width="160" height="8" as="geometry" />
        </mxCell>
        <mxCell id="Ztl-WG-k0NMjig686mCI-93" value="Plane" style="swimlane;fontStyle=1;align=center;verticalAlign=top;childLayout=stackLayout;horizontal=1;startSize=26;horizontalStack=0;resizeParent=1;resizeParentMax=0;resizeLast=0;collapsible=1;marginBottom=0;whiteSpace=wrap;html=1;" parent="1" vertex="1">
          <mxGeometry x="579" y="732" width="160" height="34" as="geometry" />
        </mxCell>
        <mxCell id="Ztl-WG-k0NMjig686mCI-94" value="" style="line;strokeWidth=1;fillColor=none;align=left;verticalAlign=middle;spacingTop=-1;spacingLeft=3;spacingRight=3;rotatable=0;labelPosition=right;points=[];portConstraint=eastwest;strokeColor=inherit;" parent="Ztl-WG-k0NMjig686mCI-93" vertex="1">
          <mxGeometry y="26" width="160" height="8" as="geometry" />
        </mxCell>
        <mxCell id="Ztl-WG-k0NMjig686mCI-99" value="AssignedPlane" style="text;html=1;align=center;verticalAlign=middle;resizable=0;points=[];autosize=1;strokeColor=none;fillColor=none;" parent="1" vertex="1">
          <mxGeometry x="478" y="748" width="100" height="30" as="geometry" />
        </mxCell>
        <mxCell id="Ztl-WG-k0NMjig686mCI-100" value="0..1" style="text;html=1;align=center;verticalAlign=middle;resizable=0;points=[];autosize=1;strokeColor=none;fillColor=none;" parent="1" vertex="1">
          <mxGeometry x="535" y="718" width="40" height="30" as="geometry" />
        </mxCell>
        <mxCell id="Ztl-WG-k0NMjig686mCI-101" value="Uni-directional association when only one side plays a role for the other party.&lt;br&gt;There is an arrow on one side pointing towards the class that plays a role." style="text;html=1;align=left;verticalAlign=middle;resizable=0;points=[];autosize=1;strokeColor=none;fillColor=none;fontStyle=1" parent="1" vertex="1">
          <mxGeometry x="158" y="683" width="430" height="40" as="geometry" />
        </mxCell>
        <mxCell id="Ztl-WG-k0NMjig686mCI-103" value="" style="endArrow=open;endFill=1;endSize=12;html=1;rounded=0;exitX=1;exitY=0.5;exitDx=0;exitDy=0;entryX=0;entryY=0.5;entryDx=0;entryDy=0;" parent="1" source="Ztl-WG-k0NMjig686mCI-78" target="Ztl-WG-k0NMjig686mCI-87" edge="1">
          <mxGeometry width="160" relative="1" as="geometry">
            <mxPoint x="318" y="2042.5" as="sourcePoint" />
            <mxPoint x="478" y="2042.5" as="targetPoint" />
          </mxGeometry>
        </mxCell>
        <mxCell id="Ztl-WG-k0NMjig686mCI-104" value="0..*" style="text;html=1;align=center;verticalAlign=middle;resizable=0;points=[];autosize=1;strokeColor=none;fillColor=none;" parent="1" vertex="1">
          <mxGeometry x="410" y="2028" width="40" height="30" as="geometry" />
        </mxCell>
        <mxCell id="Ztl-WG-k0NMjig686mCI-105" value="overdrawnAccounts" style="text;html=1;align=center;verticalAlign=middle;resizable=0;points=[];autosize=1;strokeColor=none;fillColor=none;" parent="1" vertex="1">
          <mxGeometry x="335" y="1994" width="130" height="30" as="geometry" />
        </mxCell>
        <mxCell id="Ztl-WG-k0NMjig686mCI-106" value="Uni-directional association when there is an arrow on one side" style="text;html=1;align=center;verticalAlign=middle;resizable=0;points=[];autosize=1;strokeColor=none;fillColor=none;fontStyle=1" parent="1" vertex="1">
          <mxGeometry x="40" y="1890" width="350" height="30" as="geometry" />
        </mxCell>
        <mxCell id="Ztl-WG-k0NMjig686mCI-107" value="Class Diagrams and Relationships" style="text;html=1;align=center;verticalAlign=middle;resizable=0;points=[];autosize=1;strokeColor=none;fillColor=none;fontStyle=1;labelBorderColor=default;fontSize=14;" parent="1" vertex="1">
          <mxGeometry x="131.5" y="18" width="240" height="30" as="geometry" />
        </mxCell>
        <mxCell id="pcl62C_jO1QpbA7FTqvF-2" value="WaterTemperatureController" style="swimlane;fontStyle=1;align=center;verticalAlign=top;childLayout=stackLayout;horizontal=1;startSize=26;horizontalStack=0;resizeParent=1;resizeParentMax=0;resizeLast=0;collapsible=1;marginBottom=0;whiteSpace=wrap;html=1;" vertex="1" parent="1">
          <mxGeometry x="400" y="2278" width="330" height="86" as="geometry" />
        </mxCell>
        <mxCell id="pcl62C_jO1QpbA7FTqvF-3" value="+ field: type" style="text;strokeColor=none;fillColor=none;align=left;verticalAlign=top;spacingLeft=4;spacingRight=4;overflow=hidden;rotatable=0;points=[[0,0.5],[1,0.5]];portConstraint=eastwest;whiteSpace=wrap;html=1;" vertex="1" parent="pcl62C_jO1QpbA7FTqvF-2">
          <mxGeometry y="26" width="330" height="26" as="geometry" />
        </mxCell>
        <mxCell id="pcl62C_jO1QpbA7FTqvF-4" value="" style="line;strokeWidth=1;fillColor=none;align=left;verticalAlign=middle;spacingTop=-1;spacingLeft=3;spacingRight=3;rotatable=0;labelPosition=right;points=[];portConstraint=eastwest;strokeColor=inherit;" vertex="1" parent="pcl62C_jO1QpbA7FTqvF-2">
          <mxGeometry y="52" width="330" height="8" as="geometry" />
        </mxCell>
        <mxCell id="pcl62C_jO1QpbA7FTqvF-5" value="+ WaterTemperatureController(...)" style="text;strokeColor=none;fillColor=none;align=left;verticalAlign=top;spacingLeft=4;spacingRight=4;overflow=hidden;rotatable=0;points=[[0,0.5],[1,0.5]];portConstraint=eastwest;whiteSpace=wrap;html=1;" vertex="1" parent="pcl62C_jO1QpbA7FTqvF-2">
          <mxGeometry y="60" width="330" height="26" as="geometry" />
        </mxCell>
        <mxCell id="pcl62C_jO1QpbA7FTqvF-6" value="LAB3: Interfaces&lt;br&gt;We need to develop a Button component for an application that has a need for a standardized button interface.&lt;div&gt;We are developing specialized user interface for our environmental company.&lt;br&gt;Devices using our software will have sensory to measure the environment and manipulate settings.&lt;br&gt;The proof of concept is to develop the UX framework design for the Water Temperature device.&lt;/div&gt;&lt;div&gt;The Device runs on a battery and has capabilities to start, stop, and set temperature.&lt;/div&gt;&lt;div&gt;We are also going to utilize the third part temprature reader from a company called Ambient to read the&amp;nbsp;&lt;br&gt;water temperature.&lt;/div&gt;" style="text;html=1;align=left;verticalAlign=middle;resizable=0;points=[];autosize=1;strokeColor=none;fillColor=none;fontStyle=1" vertex="1" parent="1">
          <mxGeometry x="-120" y="2110" width="610" height="130" as="geometry" />
        </mxCell>
        <mxCell id="pcl62C_jO1QpbA7FTqvF-9" value="" style="endArrow=block;dashed=1;endFill=0;endSize=12;html=1;rounded=0;exitX=0;exitY=0.5;exitDx=0;exitDy=0;entryX=1;entryY=0.5;entryDx=0;entryDy=0;" edge="1" parent="1" source="pcl62C_jO1QpbA7FTqvF-3" target="pcl62C_jO1QpbA7FTqvF-22">
          <mxGeometry width="160" relative="1" as="geometry">
            <mxPoint x="340" y="2240" as="sourcePoint" />
            <mxPoint x="209" y="2317" as="targetPoint" />
          </mxGeometry>
        </mxCell>
        <mxCell id="pcl62C_jO1QpbA7FTqvF-10" value="Implements" style="text;html=1;align=center;verticalAlign=middle;resizable=0;points=[];autosize=1;strokeColor=none;fillColor=none;" vertex="1" parent="1">
          <mxGeometry x="605" y="258" width="90" height="30" as="geometry" />
        </mxCell>
        <mxCell id="pcl62C_jO1QpbA7FTqvF-11" value="Implements" style="text;html=1;align=center;verticalAlign=middle;resizable=0;points=[];autosize=1;strokeColor=none;fillColor=none;" vertex="1" parent="1">
          <mxGeometry x="260" y="2278" width="90" height="30" as="geometry" />
        </mxCell>
        <mxCell id="pcl62C_jO1QpbA7FTqvF-21" value="&lt;b&gt;«interface»&lt;/b&gt;&lt;div&gt;&lt;b&gt;WaterTemperatureDevicecontroller&lt;/b&gt;&lt;/div&gt;" style="swimlane;fontStyle=0;childLayout=stackLayout;horizontal=1;startSize=30;fillColor=none;horizontalStack=0;resizeParent=1;resizeParentMax=0;resizeLast=0;collapsible=1;marginBottom=0;whiteSpace=wrap;html=1;" vertex="1" parent="1">
          <mxGeometry x="-120" y="2274" width="320" height="134" as="geometry" />
        </mxCell>
        <mxCell id="pcl62C_jO1QpbA7FTqvF-22" value="+ start(int: poolId)" style="text;strokeColor=none;fillColor=none;align=left;verticalAlign=top;spacingLeft=4;spacingRight=4;overflow=hidden;rotatable=0;points=[[0,0.5],[1,0.5]];portConstraint=eastwest;whiteSpace=wrap;html=1;" vertex="1" parent="pcl62C_jO1QpbA7FTqvF-21">
          <mxGeometry y="30" width="320" height="26" as="geometry" />
        </mxCell>
        <mxCell id="pcl62C_jO1QpbA7FTqvF-23" value="+ stop(int: poolId)" style="text;strokeColor=none;fillColor=none;align=left;verticalAlign=top;spacingLeft=4;spacingRight=4;overflow=hidden;rotatable=0;points=[[0,0.5],[1,0.5]];portConstraint=eastwest;whiteSpace=wrap;html=1;" vertex="1" parent="pcl62C_jO1QpbA7FTqvF-21">
          <mxGeometry y="56" width="320" height="26" as="geometry" />
        </mxCell>
        <mxCell id="pcl62C_jO1QpbA7FTqvF-26" value="+ setTemperature(int: temperature, int: poolId)" style="text;strokeColor=none;fillColor=none;align=left;verticalAlign=top;spacingLeft=4;spacingRight=4;overflow=hidden;rotatable=0;points=[[0,0.5],[1,0.5]];portConstraint=eastwest;whiteSpace=wrap;html=1;" vertex="1" parent="pcl62C_jO1QpbA7FTqvF-21">
          <mxGeometry y="82" width="320" height="26" as="geometry" />
        </mxCell>
        <mxCell id="pcl62C_jO1QpbA7FTqvF-25" value="+ getBatteryLevel(int: poolId): int level" style="text;strokeColor=none;fillColor=none;align=left;verticalAlign=top;spacingLeft=4;spacingRight=4;overflow=hidden;rotatable=0;points=[[0,0.5],[1,0.5]];portConstraint=eastwest;whiteSpace=wrap;html=1;" vertex="1" parent="pcl62C_jO1QpbA7FTqvF-21">
          <mxGeometry y="108" width="320" height="26" as="geometry" />
        </mxCell>
        <mxCell id="pcl62C_jO1QpbA7FTqvF-27" value="&lt;b&gt;«interface»&lt;br&gt;WaterTemperatureReader&lt;/b&gt;" style="swimlane;fontStyle=0;childLayout=stackLayout;horizontal=1;startSize=30;fillColor=none;horizontalStack=0;resizeParent=1;resizeParentMax=0;resizeLast=0;collapsible=1;marginBottom=0;whiteSpace=wrap;html=1;" vertex="1" parent="1">
          <mxGeometry x="398" y="2441" width="330" height="56" as="geometry" />
        </mxCell>
        <mxCell id="pcl62C_jO1QpbA7FTqvF-28" value="+ getTemperature(int poolId) : int temperature&amp;nbsp;" style="text;strokeColor=none;fillColor=none;align=left;verticalAlign=top;spacingLeft=4;spacingRight=4;overflow=hidden;rotatable=0;points=[[0,0.5],[1,0.5]];portConstraint=eastwest;whiteSpace=wrap;html=1;" vertex="1" parent="pcl62C_jO1QpbA7FTqvF-27">
          <mxGeometry y="30" width="330" height="26" as="geometry" />
        </mxCell>
        <mxCell id="pcl62C_jO1QpbA7FTqvF-31" value="Use" style="endArrow=open;endSize=12;dashed=1;html=1;rounded=0;entryX=0.5;entryY=0;entryDx=0;entryDy=0;exitX=0.496;exitY=0.969;exitDx=0;exitDy=0;exitPerimeter=0;" edge="1" parent="1" source="pcl62C_jO1QpbA7FTqvF-5" target="pcl62C_jO1QpbA7FTqvF-27">
          <mxGeometry width="160" relative="1" as="geometry">
            <mxPoint x="340" y="2240" as="sourcePoint" />
            <mxPoint x="500" y="2240" as="targetPoint" />
          </mxGeometry>
        </mxCell>
        <mxCell id="pcl62C_jO1QpbA7FTqvF-32" value="AmbientTemperatureReaderDriver" style="swimlane;fontStyle=1;align=center;verticalAlign=top;childLayout=stackLayout;horizontal=1;startSize=26;horizontalStack=0;resizeParent=1;resizeParentMax=0;resizeLast=0;collapsible=1;marginBottom=0;whiteSpace=wrap;html=1;" vertex="1" parent="1">
          <mxGeometry x="399" y="2590" width="330" height="86" as="geometry" />
        </mxCell>
        <mxCell id="pcl62C_jO1QpbA7FTqvF-33" value="+ field: type" style="text;strokeColor=none;fillColor=none;align=left;verticalAlign=top;spacingLeft=4;spacingRight=4;overflow=hidden;rotatable=0;points=[[0,0.5],[1,0.5]];portConstraint=eastwest;whiteSpace=wrap;html=1;" vertex="1" parent="pcl62C_jO1QpbA7FTqvF-32">
          <mxGeometry y="26" width="330" height="26" as="geometry" />
        </mxCell>
        <mxCell id="pcl62C_jO1QpbA7FTqvF-34" value="" style="line;strokeWidth=1;fillColor=none;align=left;verticalAlign=middle;spacingTop=-1;spacingLeft=3;spacingRight=3;rotatable=0;labelPosition=right;points=[];portConstraint=eastwest;strokeColor=inherit;" vertex="1" parent="pcl62C_jO1QpbA7FTqvF-32">
          <mxGeometry y="52" width="330" height="8" as="geometry" />
        </mxCell>
        <mxCell id="pcl62C_jO1QpbA7FTqvF-35" value="+ getTemprature(int: poolId): int temprature" style="text;strokeColor=none;fillColor=none;align=left;verticalAlign=top;spacingLeft=4;spacingRight=4;overflow=hidden;rotatable=0;points=[[0,0.5],[1,0.5]];portConstraint=eastwest;whiteSpace=wrap;html=1;" vertex="1" parent="pcl62C_jO1QpbA7FTqvF-32">
          <mxGeometry y="60" width="330" height="26" as="geometry" />
        </mxCell>
        <mxCell id="pcl62C_jO1QpbA7FTqvF-36" value="" style="endArrow=block;dashed=1;endFill=0;endSize=12;html=1;rounded=0;exitX=0.5;exitY=0;exitDx=0;exitDy=0;" edge="1" parent="1" source="pcl62C_jO1QpbA7FTqvF-32" target="pcl62C_jO1QpbA7FTqvF-28">
          <mxGeometry width="160" relative="1" as="geometry">
            <mxPoint x="410" y="2327" as="sourcePoint" />
            <mxPoint x="210" y="2327" as="targetPoint" />
          </mxGeometry>
        </mxCell>
        <mxCell id="pcl62C_jO1QpbA7FTqvF-37" value="Implements" style="text;html=1;align=center;verticalAlign=middle;resizable=0;points=[];autosize=1;strokeColor=none;fillColor=none;" vertex="1" parent="1">
          <mxGeometry x="574" y="2540" width="90" height="30" as="geometry" />
        </mxCell>
        <mxCell id="pcl62C_jO1QpbA7FTqvF-38" value="AmbientDeviceDriver" style="html=1;whiteSpace=wrap;" vertex="1" parent="1">
          <mxGeometry x="496" y="2760" width="138" height="50" as="geometry" />
        </mxCell>
        <mxCell id="pcl62C_jO1QpbA7FTqvF-39" value="Use" style="endArrow=open;endSize=12;dashed=1;html=1;rounded=0;" edge="1" parent="1" source="pcl62C_jO1QpbA7FTqvF-35" target="pcl62C_jO1QpbA7FTqvF-38">
          <mxGeometry width="160" relative="1" as="geometry">
            <mxPoint x="574" y="2373" as="sourcePoint" />
            <mxPoint x="573" y="2451" as="targetPoint" />
          </mxGeometry>
        </mxCell>
        <mxCell id="pcl62C_jO1QpbA7FTqvF-40" value="External 3rd part code library" style="text;html=1;align=center;verticalAlign=middle;resizable=0;points=[];autosize=1;strokeColor=none;fillColor=none;" vertex="1" parent="1">
          <mxGeometry x="475" y="2820" width="180" height="30" as="geometry" />
        </mxCell>
        <mxCell id="pcl62C_jO1QpbA7FTqvF-41" value="AmbientDeviceDriver" style="html=1;whiteSpace=wrap;strokeColor=#CC6600;" vertex="1" parent="1">
          <mxGeometry x="-104" y="3607" width="138" height="50" as="geometry" />
        </mxCell>
        <mxCell id="pcl62C_jO1QpbA7FTqvF-42" value="Use" style="endArrow=open;endSize=12;dashed=1;html=1;rounded=0;strokeColor=#FF8000;exitX=0.502;exitY=1.138;exitDx=0;exitDy=0;exitPerimeter=0;" edge="1" parent="1" target="pcl62C_jO1QpbA7FTqvF-41" source="pcl62C_jO1QpbA7FTqvF-46">
          <mxGeometry width="160" relative="1" as="geometry">
            <mxPoint x="-37" y="3413" as="sourcePoint" />
            <mxPoint x="30" y="3298" as="targetPoint" />
          </mxGeometry>
        </mxCell>
        <mxCell id="pcl62C_jO1QpbA7FTqvF-43" value="WaterTemperatureController" style="swimlane;fontStyle=1;align=center;verticalAlign=top;childLayout=stackLayout;horizontal=1;startSize=26;horizontalStack=0;resizeParent=1;resizeParentMax=0;resizeLast=0;collapsible=1;marginBottom=0;whiteSpace=wrap;html=1;" vertex="1" parent="1">
          <mxGeometry x="-200" y="3385" width="330" height="86" as="geometry" />
        </mxCell>
        <mxCell id="pcl62C_jO1QpbA7FTqvF-44" value="+ field: type" style="text;strokeColor=none;fillColor=none;align=left;verticalAlign=top;spacingLeft=4;spacingRight=4;overflow=hidden;rotatable=0;points=[[0,0.5],[1,0.5]];portConstraint=eastwest;whiteSpace=wrap;html=1;" vertex="1" parent="pcl62C_jO1QpbA7FTqvF-43">
          <mxGeometry y="26" width="330" height="26" as="geometry" />
        </mxCell>
        <mxCell id="pcl62C_jO1QpbA7FTqvF-45" value="" style="line;strokeWidth=1;fillColor=none;align=left;verticalAlign=middle;spacingTop=-1;spacingLeft=3;spacingRight=3;rotatable=0;labelPosition=right;points=[];portConstraint=eastwest;strokeColor=inherit;" vertex="1" parent="pcl62C_jO1QpbA7FTqvF-43">
          <mxGeometry y="52" width="330" height="8" as="geometry" />
        </mxCell>
        <mxCell id="pcl62C_jO1QpbA7FTqvF-46" value="+ WaterTemperatureController(...)" style="text;strokeColor=none;fillColor=none;align=left;verticalAlign=top;spacingLeft=4;spacingRight=4;overflow=hidden;rotatable=0;points=[[0,0.5],[1,0.5]];portConstraint=eastwest;whiteSpace=wrap;html=1;" vertex="1" parent="pcl62C_jO1QpbA7FTqvF-43">
          <mxGeometry y="60" width="330" height="26" as="geometry" />
        </mxCell>
        <mxCell id="pcl62C_jO1QpbA7FTqvF-47" value="&lt;b&gt;An alternative design for the WaterTempratureReader&amp;nbsp; would have been to directly call the&amp;nbsp;&lt;br&gt;third part driver from the Controller.&lt;br&gt;&lt;/b&gt;&lt;div style=&quot;&quot;&gt;&lt;b&gt;This would mean taking a hard dependency on a third part code library and might later require&amp;nbsp;&lt;br&gt;major modifications when the 3rd party company goes through bug fixes or version upgrades.&lt;/b&gt;&lt;/div&gt;" style="text;html=1;align=left;verticalAlign=middle;resizable=0;points=[];autosize=1;strokeColor=none;fillColor=none;" vertex="1" parent="1">
          <mxGeometry x="-200" y="3300" width="560" height="70" as="geometry" />
        </mxCell>
        <mxCell id="pcl62C_jO1QpbA7FTqvF-48" value="External 3rd part code library" style="text;html=1;align=center;verticalAlign=middle;resizable=0;points=[];autosize=1;strokeColor=none;fillColor=none;" vertex="1" parent="1">
          <mxGeometry x="-125" y="3675" width="180" height="30" as="geometry" />
        </mxCell>
        <mxCell id="pcl62C_jO1QpbA7FTqvF-49" value="Use" style="endArrow=open;endSize=12;dashed=1;html=1;rounded=0;exitX=0.165;exitY=1.131;exitDx=0;exitDy=0;exitPerimeter=0;entryX=0.5;entryY=0;entryDx=0;entryDy=0;edgeStyle=orthogonalEdgeStyle;curved=1;" edge="1" parent="1" source="pcl62C_jO1QpbA7FTqvF-5" target="pcl62C_jO1QpbA7FTqvF-50">
          <mxGeometry width="160" relative="1" as="geometry">
            <mxPoint x="574" y="2373" as="sourcePoint" />
            <mxPoint x="80" y="2470" as="targetPoint" />
            <Array as="points">
              <mxPoint x="455" y="2430" />
              <mxPoint x="40" y="2430" />
            </Array>
          </mxGeometry>
        </mxCell>
        <mxCell id="pcl62C_jO1QpbA7FTqvF-50" value="&lt;b&gt;«interface»&lt;/b&gt;&lt;div&gt;&lt;b&gt;WaterTemperatureDeviceDriver&lt;/b&gt;&lt;/div&gt;" style="swimlane;fontStyle=0;childLayout=stackLayout;horizontal=1;startSize=30;fillColor=none;horizontalStack=0;resizeParent=1;resizeParentMax=0;resizeLast=0;collapsible=1;marginBottom=0;whiteSpace=wrap;html=1;" vertex="1" parent="1">
          <mxGeometry x="-120" y="2538" width="320" height="134" as="geometry" />
        </mxCell>
        <mxCell id="pcl62C_jO1QpbA7FTqvF-51" value="+ start(int: poolId)" style="text;strokeColor=none;fillColor=none;align=left;verticalAlign=top;spacingLeft=4;spacingRight=4;overflow=hidden;rotatable=0;points=[[0,0.5],[1,0.5]];portConstraint=eastwest;whiteSpace=wrap;html=1;" vertex="1" parent="pcl62C_jO1QpbA7FTqvF-50">
          <mxGeometry y="30" width="320" height="26" as="geometry" />
        </mxCell>
        <mxCell id="pcl62C_jO1QpbA7FTqvF-52" value="+ stop(int: poolId)" style="text;strokeColor=none;fillColor=none;align=left;verticalAlign=top;spacingLeft=4;spacingRight=4;overflow=hidden;rotatable=0;points=[[0,0.5],[1,0.5]];portConstraint=eastwest;whiteSpace=wrap;html=1;" vertex="1" parent="pcl62C_jO1QpbA7FTqvF-50">
          <mxGeometry y="56" width="320" height="26" as="geometry" />
        </mxCell>
        <mxCell id="pcl62C_jO1QpbA7FTqvF-53" value="+ setTemperature(int: temperature, int: poolId)" style="text;strokeColor=none;fillColor=none;align=left;verticalAlign=top;spacingLeft=4;spacingRight=4;overflow=hidden;rotatable=0;points=[[0,0.5],[1,0.5]];portConstraint=eastwest;whiteSpace=wrap;html=1;" vertex="1" parent="pcl62C_jO1QpbA7FTqvF-50">
          <mxGeometry y="82" width="320" height="26" as="geometry" />
        </mxCell>
        <mxCell id="pcl62C_jO1QpbA7FTqvF-54" value="+ getBatteryLevel(int: poolId): int level" style="text;strokeColor=none;fillColor=none;align=left;verticalAlign=top;spacingLeft=4;spacingRight=4;overflow=hidden;rotatable=0;points=[[0,0.5],[1,0.5]];portConstraint=eastwest;whiteSpace=wrap;html=1;" vertex="1" parent="pcl62C_jO1QpbA7FTqvF-50">
          <mxGeometry y="108" width="320" height="26" as="geometry" />
        </mxCell>
        <mxCell id="pcl62C_jO1QpbA7FTqvF-60" value="&lt;div&gt;&lt;b&gt;WaterTemperatureDeviceDriver&lt;/b&gt;&lt;/div&gt;" style="swimlane;fontStyle=0;childLayout=stackLayout;horizontal=1;startSize=30;fillColor=none;horizontalStack=0;resizeParent=1;resizeParentMax=0;resizeLast=0;collapsible=1;marginBottom=0;whiteSpace=wrap;html=1;" vertex="1" parent="1">
          <mxGeometry x="-118" y="2718" width="320" height="134" as="geometry" />
        </mxCell>
        <mxCell id="pcl62C_jO1QpbA7FTqvF-61" value="+ start(int: poolId)" style="text;strokeColor=none;fillColor=none;align=left;verticalAlign=top;spacingLeft=4;spacingRight=4;overflow=hidden;rotatable=0;points=[[0,0.5],[1,0.5]];portConstraint=eastwest;whiteSpace=wrap;html=1;" vertex="1" parent="pcl62C_jO1QpbA7FTqvF-60">
          <mxGeometry y="30" width="320" height="26" as="geometry" />
        </mxCell>
        <mxCell id="pcl62C_jO1QpbA7FTqvF-62" value="+ stop(int: poolId)" style="text;strokeColor=none;fillColor=none;align=left;verticalAlign=top;spacingLeft=4;spacingRight=4;overflow=hidden;rotatable=0;points=[[0,0.5],[1,0.5]];portConstraint=eastwest;whiteSpace=wrap;html=1;" vertex="1" parent="pcl62C_jO1QpbA7FTqvF-60">
          <mxGeometry y="56" width="320" height="26" as="geometry" />
        </mxCell>
        <mxCell id="pcl62C_jO1QpbA7FTqvF-63" value="+ setTemperature(int: temperature, int: poolId)" style="text;strokeColor=none;fillColor=none;align=left;verticalAlign=top;spacingLeft=4;spacingRight=4;overflow=hidden;rotatable=0;points=[[0,0.5],[1,0.5]];portConstraint=eastwest;whiteSpace=wrap;html=1;" vertex="1" parent="pcl62C_jO1QpbA7FTqvF-60">
          <mxGeometry y="82" width="320" height="26" as="geometry" />
        </mxCell>
        <mxCell id="pcl62C_jO1QpbA7FTqvF-64" value="+ getBatteryLevel(int: poolId): int level" style="text;strokeColor=none;fillColor=none;align=left;verticalAlign=top;spacingLeft=4;spacingRight=4;overflow=hidden;rotatable=0;points=[[0,0.5],[1,0.5]];portConstraint=eastwest;whiteSpace=wrap;html=1;" vertex="1" parent="pcl62C_jO1QpbA7FTqvF-60">
          <mxGeometry y="108" width="320" height="26" as="geometry" />
        </mxCell>
        <mxCell id="pcl62C_jO1QpbA7FTqvF-65" value="" style="endArrow=block;dashed=1;endFill=0;endSize=12;html=1;rounded=0;exitX=0.5;exitY=0;exitDx=0;exitDy=0;entryX=0.505;entryY=1.038;entryDx=0;entryDy=0;entryPerimeter=0;" edge="1" parent="1" source="pcl62C_jO1QpbA7FTqvF-60" target="pcl62C_jO1QpbA7FTqvF-54">
          <mxGeometry width="160" relative="1" as="geometry">
            <mxPoint x="574" y="2600" as="sourcePoint" />
            <mxPoint x="573" y="2507" as="targetPoint" />
          </mxGeometry>
        </mxCell>
        <mxCell id="pcl62C_jO1QpbA7FTqvF-66" value="InternalDeviceDriver" style="html=1;whiteSpace=wrap;" vertex="1" parent="1">
          <mxGeometry x="-29" y="2934" width="138" height="50" as="geometry" />
        </mxCell>
        <mxCell id="pcl62C_jO1QpbA7FTqvF-67" value="Use" style="endArrow=open;endSize=12;dashed=1;html=1;rounded=0;" edge="1" parent="1" target="pcl62C_jO1QpbA7FTqvF-66">
          <mxGeometry width="160" relative="1" as="geometry">
            <mxPoint x="39" y="2850" as="sourcePoint" />
            <mxPoint x="48" y="2625" as="targetPoint" />
          </mxGeometry>
        </mxCell>
        <mxCell id="pcl62C_jO1QpbA7FTqvF-68" value="Internal 1st part code library" style="text;html=1;align=center;verticalAlign=middle;resizable=0;points=[];autosize=1;strokeColor=none;fillColor=none;" vertex="1" parent="1">
          <mxGeometry x="-45" y="2994" width="170" height="30" as="geometry" />
        </mxCell>
      </root>
    </mxGraphModel>
  </diagram>
</mxfile>
